# xmcd
#
# Track frame offsets:
#	150
#	26124
#	46275
#	68325
#	86025
#	107775
#	120300
#	145275
#	173700
#	192725
#	215658
#
# Disc length: 3408 seconds
#
# Revision: 1
# Processed by: cddbd v1.5.1PL0 Copyright (c) Steve Scherf et al.
# Submitted via: dBpowerAMP V4.0
#
DISCID=9d0d4e0b
DTITLE=Various Artist - 世紀末的呼吸
DYEAR=1997
DGENRE=New Age
TTITLE0=全速漂浮 - 蒙巴薩
TTITLE1=極微的極限 - 吳信熹
TTITLE2=家之印象 - 徐清原
TTITLE3=趨近海的欲望 - 張永智
TTITLE4=月式碰撞 - 雷光夏
TTITLE5=星夜沙灘和我的裸體 - 徐清原
TTITLE6=精靈森林 - 蒙巴薩
TTITLE7=盒子 - 蔡旭峰
TTITLE8=第七天的末59秒 - 吳信熹
TTITLE9=最後的城市 - 蔡旭峰
TTITLE10=夢想的邊際 - 蒙巴薩
EXTD=
EXTT0=
EXTT1=
EXTT2=
EXTT3=
EXTT4=
EXTT5=
EXTT6=
EXTT7=
EXTT8=
EXTT9=
EXTT10=
PLAYORDER=
